<mxfile host="app.diagrams.net" modified="2023-02-05T23:24:30.964Z" agent="5.0 (Windows)" etag="y_RN7DGmAe7TpU-3bcl7" version="20.8.16" type="github">
  <diagram name="Page-1" id="tvrXYWguxjk-g5KQNEeY">
    <mxGraphModel dx="1313" dy="663" grid="1" gridSize="10" guides="1" tooltips="1" connect="1" arrows="1" fold="1" page="1" pageScale="1" pageWidth="827" pageHeight="1169" math="0" shadow="0">
      <root>
        <mxCell id="0" />
        <mxCell id="1" parent="0" />
        <mxCell id="I1212vl05lIgOYmDwrLI-1" style="edgeStyle=none;rounded=0;orthogonalLoop=1;jettySize=auto;html=1;exitX=1;exitY=0.3333333333333333;exitDx=0;exitDy=0;exitPerimeter=0;entryX=0.032;entryY=0.371;entryDx=0;entryDy=0;entryPerimeter=0;fontSize=18;endArrow=none;endFill=0;strokeWidth=1;strokeColor=#000000;" edge="1" parent="1" source="I1212vl05lIgOYmDwrLI-3" target="I1212vl05lIgOYmDwrLI-4">
          <mxGeometry relative="1" as="geometry" />
        </mxCell>
        <mxCell id="I1212vl05lIgOYmDwrLI-2" style="edgeStyle=none;rounded=0;orthogonalLoop=1;jettySize=auto;html=1;entryX=0;entryY=0.5;entryDx=0;entryDy=0;fontSize=18;endArrow=none;endFill=0;strokeWidth=1;strokeColor=#000000;exitX=1;exitY=0.3333333333333333;exitDx=0;exitDy=0;exitPerimeter=0;" edge="1" parent="1" target="I1212vl05lIgOYmDwrLI-17" source="I1212vl05lIgOYmDwrLI-3">
          <mxGeometry relative="1" as="geometry">
            <mxPoint x="100" y="500" as="sourcePoint" />
          </mxGeometry>
        </mxCell>
        <mxCell id="I1212vl05lIgOYmDwrLI-3" value="&lt;div&gt;Organizateur&lt;/div&gt;&lt;div&gt;&lt;br&gt;&lt;/div&gt;" style="html=1;overflow=block;blockSpacing=1;shape=umlActor;labelPosition=center;verticalLabelPosition=bottom;verticalAlign=top;whiteSpace=nowrap;fontSize=16.7;fontColor=#333333;align=center;spacing=0;strokeColor=#000000;strokeOpacity=100;rounded=1;absoluteArcSize=1;arcSize=9;strokeWidth=1;lucidId=wAitfE4UTxwo;" vertex="1" parent="1">
          <mxGeometry x="40" y="450" width="60" height="135" as="geometry" />
        </mxCell>
        <mxCell id="I1212vl05lIgOYmDwrLI-4" value="&lt;font style=&quot;font-size: 14px;&quot;&gt;Consulter les statistiques des ventes &lt;/font&gt;" style="html=1;overflow=block;blockSpacing=1;whiteSpace=wrap;ellipse;fontSize=13;spacing=3.8;strokeColor=#000000;strokeOpacity=100;rounded=1;absoluteArcSize=1;arcSize=9;strokeWidth=1;lucidId=.BitsejxpJ_f;" vertex="1" parent="1">
          <mxGeometry x="526" y="250" width="214" height="60" as="geometry" />
        </mxCell>
        <mxCell id="I1212vl05lIgOYmDwrLI-5" style="edgeStyle=none;rounded=0;orthogonalLoop=1;jettySize=auto;html=1;exitX=0;exitY=0.5;exitDx=0;exitDy=0;entryX=1;entryY=0.3333333333333333;entryDx=0;entryDy=0;entryPerimeter=0;fontSize=18;endArrow=none;endFill=0;strokeWidth=1;strokeColor=#000000;" edge="1" parent="1" source="I1212vl05lIgOYmDwrLI-6" target="I1212vl05lIgOYmDwrLI-3">
          <mxGeometry relative="1" as="geometry" />
        </mxCell>
        <mxCell id="I1212vl05lIgOYmDwrLI-6" value="&lt;font style=&quot;font-size: 14px;&quot;&gt;Gestion d&#39;évenements&lt;/font&gt;" style="html=1;overflow=block;blockSpacing=1;whiteSpace=wrap;ellipse;fontSize=13;spacing=3.8;strokeColor=#000000;strokeOpacity=100;rounded=1;absoluteArcSize=1;arcSize=9;strokeWidth=1;lucidId=.BitsejxpJ_f;" vertex="1" parent="1">
          <mxGeometry x="290" y="420" width="195" height="40" as="geometry" />
        </mxCell>
        <mxCell id="I1212vl05lIgOYmDwrLI-7" style="edgeStyle=none;rounded=0;orthogonalLoop=1;jettySize=auto;html=1;exitX=0;exitY=0.5;exitDx=0;exitDy=0;entryX=1;entryY=0.5;entryDx=0;entryDy=0;fontSize=14;endArrow=block;endFill=0;strokeWidth=1;strokeColor=#000000;" edge="1" parent="1" source="I1212vl05lIgOYmDwrLI-8" target="I1212vl05lIgOYmDwrLI-6">
          <mxGeometry relative="1" as="geometry" />
        </mxCell>
        <mxCell id="I1212vl05lIgOYmDwrLI-8" value="&lt;font style=&quot;font-size: 12px;&quot;&gt;Creer évenement&lt;/font&gt;" style="html=1;overflow=block;blockSpacing=1;whiteSpace=wrap;ellipse;fontSize=13;spacing=3.8;strokeColor=#000000;strokeOpacity=100;rounded=1;absoluteArcSize=1;arcSize=9;strokeWidth=1;lucidId=.BitsejxpJ_f;" vertex="1" parent="1">
          <mxGeometry x="545" y="390" width="195" height="40" as="geometry" />
        </mxCell>
        <mxCell id="I1212vl05lIgOYmDwrLI-9" style="edgeStyle=none;rounded=0;orthogonalLoop=1;jettySize=auto;html=1;exitX=0;exitY=0.5;exitDx=0;exitDy=0;entryX=0.922;entryY=0.844;entryDx=0;entryDy=0;entryPerimeter=0;fontSize=18;endArrow=block;endFill=0;strokeWidth=1;strokeColor=#000000;" edge="1" parent="1" source="I1212vl05lIgOYmDwrLI-10" target="I1212vl05lIgOYmDwrLI-6">
          <mxGeometry relative="1" as="geometry" />
        </mxCell>
        <mxCell id="I1212vl05lIgOYmDwrLI-10" value="&lt;font style=&quot;font-size: 12px;&quot;&gt;modifier evenement&lt;/font&gt;" style="html=1;overflow=block;blockSpacing=1;whiteSpace=wrap;ellipse;fontSize=13;spacing=3.8;strokeColor=#000000;strokeOpacity=100;rounded=1;absoluteArcSize=1;arcSize=9;strokeWidth=1;lucidId=.BitsejxpJ_f;" vertex="1" parent="1">
          <mxGeometry x="550" y="440" width="195" height="40" as="geometry" />
        </mxCell>
        <mxCell id="I1212vl05lIgOYmDwrLI-11" style="edgeStyle=none;rounded=0;orthogonalLoop=1;jettySize=auto;html=1;exitX=0;exitY=0.5;exitDx=0;exitDy=0;entryX=0.93;entryY=0.178;entryDx=0;entryDy=0;entryPerimeter=0;fontSize=18;endArrow=block;endFill=0;strokeWidth=1;strokeColor=#000000;" edge="1" parent="1" source="I1212vl05lIgOYmDwrLI-12" target="I1212vl05lIgOYmDwrLI-6">
          <mxGeometry relative="1" as="geometry" />
        </mxCell>
        <mxCell id="I1212vl05lIgOYmDwrLI-12" value="&lt;font style=&quot;font-size: 12px;&quot;&gt;Supprimer évenement &lt;/font&gt;" style="html=1;overflow=block;blockSpacing=1;whiteSpace=wrap;ellipse;fontSize=13;spacing=3.8;strokeColor=#000000;strokeOpacity=100;rounded=1;absoluteArcSize=1;arcSize=9;strokeWidth=1;lucidId=.BitsejxpJ_f;" vertex="1" parent="1">
          <mxGeometry x="550" y="340" width="195" height="40" as="geometry" />
        </mxCell>
        <mxCell id="I1212vl05lIgOYmDwrLI-13" style="edgeStyle=none;rounded=0;orthogonalLoop=1;jettySize=auto;html=1;exitX=0;exitY=0;exitDx=0;exitDy=0;fontSize=18;endArrow=none;endFill=0;strokeWidth=1;strokeColor=#000000;entryX=1;entryY=0.3333333333333333;entryDx=0;entryDy=0;entryPerimeter=0;" edge="1" parent="1" source="I1212vl05lIgOYmDwrLI-14" target="I1212vl05lIgOYmDwrLI-3">
          <mxGeometry relative="1" as="geometry">
            <mxPoint x="110" y="500" as="targetPoint" />
          </mxGeometry>
        </mxCell>
        <mxCell id="I1212vl05lIgOYmDwrLI-14" value="&lt;font style=&quot;font-size: 14px;&quot;&gt;Consulter des messages  &lt;/font&gt;" style="ellipse;whiteSpace=wrap;html=1;strokeWidth=1;strokeColor=#000000;" vertex="1" parent="1">
          <mxGeometry x="400" y="510" width="260" height="55" as="geometry" />
        </mxCell>
        <mxCell id="I1212vl05lIgOYmDwrLI-15" style="rounded=0;orthogonalLoop=1;jettySize=auto;html=1;exitX=0;exitY=0.5;exitDx=0;exitDy=0;endArrow=block;endFill=0;strokeWidth=1;strokeColor=#000000;" edge="1" parent="1" source="I1212vl05lIgOYmDwrLI-16" target="I1212vl05lIgOYmDwrLI-14">
          <mxGeometry relative="1" as="geometry" />
        </mxCell>
        <mxCell id="I1212vl05lIgOYmDwrLI-16" value="&lt;div&gt;Filtrer les messages &lt;br&gt;&lt;/div&gt;" style="ellipse;whiteSpace=wrap;html=1;strokeWidth=1;strokeColor=#000000;" vertex="1" parent="1">
          <mxGeometry x="710" y="517.5" width="270" height="40" as="geometry" />
        </mxCell>
        <mxCell id="I1212vl05lIgOYmDwrLI-17" value="&lt;div&gt;&lt;font style=&quot;font-size: 14px;&quot;&gt;Ajouter Portier au evenement&lt;/font&gt;&lt;/div&gt;" style="ellipse;whiteSpace=wrap;html=1;strokeWidth=1;strokeColor=#000000;" vertex="1" parent="1">
          <mxGeometry x="454" y="680" width="193" height="50" as="geometry" />
        </mxCell>
        <mxCell id="I1212vl05lIgOYmDwrLI-18" value="S&#39;authentifier" style="html=1;overflow=block;blockSpacing=1;whiteSpace=wrap;ellipse;fontSize=13;spacing=3.8;strokeColor=#000000;strokeOpacity=100;rounded=1;absoluteArcSize=1;arcSize=9;strokeWidth=1;lucidId=XvitAHHM73nt;" vertex="1" parent="1">
          <mxGeometry x="1020" y="440" width="120" height="90" as="geometry" />
        </mxCell>
        <mxCell id="I1212vl05lIgOYmDwrLI-19" value="Deconnecter" style="html=1;overflow=block;blockSpacing=1;whiteSpace=wrap;ellipse;fontSize=13;spacing=3.8;strokeColor=#000000;strokeOpacity=100;rounded=1;absoluteArcSize=1;arcSize=9;strokeWidth=1;lucidId=XvitmW9DInrr;" vertex="1" parent="1">
          <mxGeometry x="1140" y="295" width="120" height="45" as="geometry" />
        </mxCell>
        <mxCell id="I1212vl05lIgOYmDwrLI-20" value="&lt;font style=&quot;font-size: 12px;&quot;&gt;Selon Age&lt;/font&gt;" style="ellipse;whiteSpace=wrap;html=1;fontSize=24;strokeWidth=1;strokeColor=#000000;" vertex="1" parent="1">
          <mxGeometry x="805" y="230" width="120" height="30" as="geometry" />
        </mxCell>
        <mxCell id="I1212vl05lIgOYmDwrLI-21" value="&lt;font style=&quot;font-size: 12px;&quot;&gt;Selon Region&lt;/font&gt;" style="ellipse;whiteSpace=wrap;html=1;fontSize=24;strokeWidth=1;strokeColor=#000000;" vertex="1" parent="1">
          <mxGeometry x="785" y="180" width="160" height="30" as="geometry" />
        </mxCell>
        <mxCell id="I1212vl05lIgOYmDwrLI-22" value="&lt;div&gt;&lt;font style=&quot;font-size: 12px;&quot;&gt;Selon &lt;font style=&quot;font-size: 12px;&quot;&gt;Mois&lt;/font&gt;&lt;/font&gt;&lt;/div&gt;" style="ellipse;whiteSpace=wrap;html=1;fontSize=24;strokeWidth=1;strokeColor=#000000;" vertex="1" parent="1">
          <mxGeometry x="795" y="270" width="150" height="40" as="geometry" />
        </mxCell>
        <mxCell id="I1212vl05lIgOYmDwrLI-23" value="&amp;lt;&amp;lt;extend&amp;gt;&amp;gt;" style="html=1;verticalAlign=bottom;labelBackgroundColor=none;endArrow=open;endFill=0;dashed=1;rounded=0;fontSize=14;entryX=0;entryY=1;entryDx=0;entryDy=0;exitX=0.623;exitY=-0.022;exitDx=0;exitDy=0;exitPerimeter=0;strokeWidth=1;strokeColor=#000000;" edge="1" parent="1" source="I1212vl05lIgOYmDwrLI-4" target="I1212vl05lIgOYmDwrLI-21">
          <mxGeometry width="160" relative="1" as="geometry">
            <mxPoint x="650" y="210" as="sourcePoint" />
            <mxPoint x="810" y="210" as="targetPoint" />
          </mxGeometry>
        </mxCell>
        <mxCell id="I1212vl05lIgOYmDwrLI-24" value="&amp;lt;&amp;lt;extend&amp;gt;&amp;gt;" style="html=1;verticalAlign=bottom;labelBackgroundColor=none;endArrow=open;endFill=0;dashed=1;rounded=0;fontSize=14;entryX=0.028;entryY=0.788;entryDx=0;entryDy=0;exitX=1;exitY=0;exitDx=0;exitDy=0;entryPerimeter=0;strokeWidth=1;strokeColor=#000000;" edge="1" parent="1" source="I1212vl05lIgOYmDwrLI-4" target="I1212vl05lIgOYmDwrLI-20">
          <mxGeometry width="160" relative="1" as="geometry">
            <mxPoint x="658.3220000000001" y="258.0199999999995" as="sourcePoint" />
            <mxPoint x="768.4314575050767" y="135.35533905932698" as="targetPoint" />
          </mxGeometry>
        </mxCell>
        <mxCell id="I1212vl05lIgOYmDwrLI-25" value="&amp;lt;&amp;lt;extend&amp;gt;&amp;gt;" style="html=1;verticalAlign=bottom;labelBackgroundColor=none;endArrow=open;endFill=0;dashed=1;rounded=0;fontSize=14;entryX=0.056;entryY=0.756;entryDx=0;entryDy=0;exitX=1;exitY=0.5;exitDx=0;exitDy=0;entryPerimeter=0;strokeWidth=1;strokeColor=#000000;" edge="1" parent="1" source="I1212vl05lIgOYmDwrLI-4" target="I1212vl05lIgOYmDwrLI-22">
          <mxGeometry width="160" relative="1" as="geometry">
            <mxPoint x="668.3220000000001" y="268.0199999999995" as="sourcePoint" />
            <mxPoint x="778.4314575050767" y="145.35533905932698" as="targetPoint" />
          </mxGeometry>
        </mxCell>
        <mxCell id="I1212vl05lIgOYmDwrLI-29" value="&amp;lt;&amp;lt;include&amp;gt;&amp;gt;" style="html=1;verticalAlign=bottom;labelBackgroundColor=none;endArrow=open;endFill=0;dashed=1;rounded=0;fontSize=14;exitX=1;exitY=0.5;exitDx=0;exitDy=0;entryX=0.5;entryY=1;entryDx=0;entryDy=0;strokeWidth=1;strokeColor=#000000;" edge="1" parent="1" target="I1212vl05lIgOYmDwrLI-18" source="I1212vl05lIgOYmDwrLI-17">
          <mxGeometry width="160" relative="1" as="geometry">
            <mxPoint x="553.6700000000001" y="970" as="sourcePoint" />
            <mxPoint x="740.0043685400055" y="1039.875388202502" as="targetPoint" />
            <Array as="points">
              <mxPoint x="1080" y="660" />
            </Array>
          </mxGeometry>
        </mxCell>
        <mxCell id="I1212vl05lIgOYmDwrLI-30" value="&amp;lt;&amp;lt;include&amp;gt;&amp;gt;" style="html=1;verticalAlign=bottom;labelBackgroundColor=none;endArrow=open;endFill=0;dashed=1;rounded=0;fontSize=14;exitX=1;exitY=0.5;exitDx=0;exitDy=0;entryX=0;entryY=1;entryDx=0;entryDy=0;strokeWidth=1;strokeColor=#000000;" edge="1" parent="1" source="I1212vl05lIgOYmDwrLI-16" target="I1212vl05lIgOYmDwrLI-18">
          <mxGeometry width="160" relative="1" as="geometry">
            <mxPoint x="546.1" y="953.1799999999998" as="sourcePoint" />
            <mxPoint x="1200.0035931288076" y="669.9998051533935" as="targetPoint" />
          </mxGeometry>
        </mxCell>
        <mxCell id="I1212vl05lIgOYmDwrLI-31" value="&amp;lt;&amp;lt;extend&amp;gt;&amp;gt;" style="html=1;verticalAlign=bottom;labelBackgroundColor=none;endArrow=open;endFill=0;dashed=1;rounded=0;fontSize=14;entryX=1;entryY=0;entryDx=0;entryDy=0;exitX=0.25;exitY=1;exitDx=0;exitDy=0;exitPerimeter=0;strokeWidth=1;strokeColor=#000000;" edge="1" parent="1" source="I1212vl05lIgOYmDwrLI-19" target="I1212vl05lIgOYmDwrLI-18">
          <mxGeometry width="160" relative="1" as="geometry">
            <mxPoint x="1370" y="530" as="sourcePoint" />
            <mxPoint x="1530" y="530" as="targetPoint" />
          </mxGeometry>
        </mxCell>
        <mxCell id="I1212vl05lIgOYmDwrLI-32" value="&lt;div&gt;Selon feedback&lt;br&gt;&lt;/div&gt;" style="ellipse;whiteSpace=wrap;html=1;strokeWidth=1;strokeColor=#000000;" vertex="1" parent="1">
          <mxGeometry x="647" y="610" width="180" height="30" as="geometry" />
        </mxCell>
        <mxCell id="I1212vl05lIgOYmDwrLI-33" value="&lt;div&gt;Selon Reclamation&lt;br&gt;&lt;/div&gt;" style="ellipse;whiteSpace=wrap;html=1;strokeWidth=1;strokeColor=#000000;" vertex="1" parent="1">
          <mxGeometry x="840" y="610" width="180" height="30" as="geometry" />
        </mxCell>
        <mxCell id="I1212vl05lIgOYmDwrLI-41" value="&amp;lt;&amp;lt;extend&amp;gt;&amp;gt;" style="html=1;verticalAlign=bottom;labelBackgroundColor=none;endArrow=open;endFill=0;dashed=1;rounded=0;fontSize=14;entryX=0.259;entryY=0.875;entryDx=0;entryDy=0;exitX=0.5;exitY=0;exitDx=0;exitDy=0;strokeWidth=1;strokeColor=#000000;entryPerimeter=0;" edge="1" parent="1" source="I1212vl05lIgOYmDwrLI-32" target="I1212vl05lIgOYmDwrLI-16">
          <mxGeometry width="160" relative="1" as="geometry">
            <mxPoint x="669.3219999999997" y="258.68000000000006" as="sourcePoint" />
            <mxPoint x="817.5679685239279" y="215.44218754110398" as="targetPoint" />
            <Array as="points" />
          </mxGeometry>
        </mxCell>
        <mxCell id="I1212vl05lIgOYmDwrLI-42" value="&amp;lt;&amp;lt;extend&amp;gt;&amp;gt;" style="html=1;verticalAlign=bottom;labelBackgroundColor=none;endArrow=open;endFill=0;dashed=1;rounded=0;fontSize=14;exitX=0.5;exitY=0;exitDx=0;exitDy=0;strokeWidth=1;strokeColor=#000000;entryX=0.559;entryY=1.01;entryDx=0;entryDy=0;entryPerimeter=0;" edge="1" parent="1" source="I1212vl05lIgOYmDwrLI-33" target="I1212vl05lIgOYmDwrLI-16">
          <mxGeometry width="160" relative="1" as="geometry">
            <mxPoint x="725" y="670" as="sourcePoint" />
            <mxPoint x="860" y="610" as="targetPoint" />
            <Array as="points" />
          </mxGeometry>
        </mxCell>
        <mxCell id="I1212vl05lIgOYmDwrLI-44" value="&amp;lt;&amp;lt;include&amp;gt;&amp;gt;" style="html=1;verticalAlign=bottom;labelBackgroundColor=none;endArrow=open;endFill=0;dashed=1;rounded=0;strokeColor=#000000;strokeWidth=1;exitX=1;exitY=0.5;exitDx=0;exitDy=0;entryX=0.319;entryY=0.057;entryDx=0;entryDy=0;entryPerimeter=0;" edge="1" parent="1" source="I1212vl05lIgOYmDwrLI-12" target="I1212vl05lIgOYmDwrLI-18">
          <mxGeometry width="160" relative="1" as="geometry">
            <mxPoint x="850" y="420" as="sourcePoint" />
            <mxPoint x="1010" y="420" as="targetPoint" />
          </mxGeometry>
        </mxCell>
        <mxCell id="I1212vl05lIgOYmDwrLI-45" value="&amp;lt;&amp;lt;include&amp;gt;&amp;gt;" style="html=1;verticalAlign=bottom;labelBackgroundColor=none;endArrow=open;endFill=0;dashed=1;rounded=0;strokeColor=#000000;strokeWidth=1;exitX=1;exitY=0.5;exitDx=0;exitDy=0;entryX=0;entryY=0;entryDx=0;entryDy=0;" edge="1" parent="1" source="I1212vl05lIgOYmDwrLI-8" target="I1212vl05lIgOYmDwrLI-18">
          <mxGeometry width="160" relative="1" as="geometry">
            <mxPoint x="755.0000000000045" y="370" as="sourcePoint" />
            <mxPoint x="1090" y="450" as="targetPoint" />
          </mxGeometry>
        </mxCell>
        <mxCell id="I1212vl05lIgOYmDwrLI-46" value="&amp;lt;&amp;lt;include&amp;gt;&amp;gt;" style="html=1;verticalAlign=bottom;labelBackgroundColor=none;endArrow=open;endFill=0;dashed=1;rounded=0;strokeColor=#000000;strokeWidth=1;exitX=1;exitY=0.5;exitDx=0;exitDy=0;entryX=0;entryY=0.5;entryDx=0;entryDy=0;" edge="1" parent="1" source="I1212vl05lIgOYmDwrLI-10" target="I1212vl05lIgOYmDwrLI-18">
          <mxGeometry width="160" relative="1" as="geometry">
            <mxPoint x="750" y="420" as="sourcePoint" />
            <mxPoint x="1046.92597639295" y="463.6734373766906" as="targetPoint" />
          </mxGeometry>
        </mxCell>
        <mxCell id="I1212vl05lIgOYmDwrLI-47" value="&amp;lt;&amp;lt;include&amp;gt;&amp;gt;" style="html=1;verticalAlign=bottom;labelBackgroundColor=none;endArrow=open;endFill=0;dashed=1;rounded=0;strokeColor=#000000;strokeWidth=1;entryX=0.683;entryY=0.016;entryDx=0;entryDy=0;entryPerimeter=0;" edge="1" parent="1" source="I1212vl05lIgOYmDwrLI-4" target="I1212vl05lIgOYmDwrLI-18">
          <mxGeometry width="160" relative="1" as="geometry">
            <mxPoint x="760" y="430" as="sourcePoint" />
            <mxPoint x="1056.92597639295" y="473.6734373766906" as="targetPoint" />
          </mxGeometry>
        </mxCell>
      </root>
    </mxGraphModel>
  </diagram>
</mxfile>
